<svg xmlns="http://www.w3.org/2000/svg" width="192" height="192" fill="none" viewBox="0 0 192 192"><path stroke="#000" stroke-linecap="round" stroke-linejoin="round" stroke-width="12" d="M 98.5 69 c 1.988 2.27 17.35 17.035 20.31 16.377 l 10.14 -1.25 c 3.554 -0.79 6.166 -3.794 6.425 -7.392 l 0.59 -8.199 v 0.001 c 0.324 -4.5 -3.104 -8.455 -7.656 -8.292 a 76.5 76.5 0 0 0 -47.161 18.439 c -12.806 11 -21.937 26.197 -25.105 43.629 c -0.808 4.44 2.66 8.363 7.203 8.682 l 8.277 0.582 c 3.634 0.255 7.007 -1.88 8.3 -5.254 l 2.683 -9.765 c 1.076 -2.81 -11.767 -19.737 -13.754 -22.007"/><circle cx="96" cy="96" r="74" stroke="#000" stroke-linecap="round" stroke-linejoin="round" stroke-miterlimit="32" stroke-width="12"/></svg>