<svg xmlns="http://www.w3.org/2000/svg" width="192" height="192" fill="none" stroke="#000" stroke-linecap="round" stroke-linejoin="round" stroke-width="12" viewBox="0 0 192 192"><path d="M 168 55 l -51.292 45.611 c -2.299 2.104 -5.799 2.004 -8.098 -0.101 l -4.8 -4.51 l -9.998 -9.422 M 168 136.9 L 123.007 96 m -78.487 0.902 l 10.498 10.324 l 16.398 -16.238 m 16.197 19.546 c 8.099 -16.338 6.299 -31.574 5.4 -36.786 c -4.6 -0.902 -11.399 -2.806 -18.798 -7.016 C 66.416 62.222 61.117 56.709 57.918 53 c -3.1 3.709 -8.399 9.221 -16.298 13.732 a 60.6 60.6 0 0 1 -18.797 7.016 c -0.9 5.313 -2.7 20.448 5.4 36.786 C 37.42 129.177 53.318 136.995 57.917 139 c 4.599 -2.005 20.497 -9.823 29.695 -28.466 Z"/><path d="M 58.018 53 H 164 a 6 6 0 0 1 6 6 v 74 a 6 6 0 0 1 -6 6 H 58.018"/></svg>